<?xml version="1.0" encoding="UTF-8" standalone="no"?>
<svg
   xmlns:dc="http://purl.org/dc/elements/1.1/"
   xmlns:cc="http://creativecommons.org/ns#"
   xmlns:rdf="http://www.w3.org/1999/02/22-rdf-syntax-ns#"
   xmlns:svg="http://www.w3.org/2000/svg"
   xmlns="http://www.w3.org/2000/svg"
   viewBox="0 0 75 75"
   height="75"
   width="75"
   xml:space="preserve"
   version="1.1"
   id="svg2"><metadata
     id="metadata8"><rdf:RDF><cc:Work
         rdf:about=""><dc:format>image/svg+xml</dc:format><dc:type
           rdf:resource="http://purl.org/dc/dcmitype/StillImage" /></cc:Work></rdf:RDF></metadata><defs
     id="defs6"><clipPath
       id="clipPath16"
       clipPathUnits="userSpaceOnUse"><path
         id="path18"
         d="M 0,60 60,60 60,0 0,0 0,60 Z" /></clipPath></defs><g
     transform="matrix(1.25,0,0,-1.25,0,75)"
     id="g10"><g
       id="g12"><g
         clip-path="url(#clipPath16)"
         id="g14"><g
           transform="translate(58.8266,59.6384)"
           id="g20"><path
             id="path22"
             style="fill:#00b9f1;fill-opacity:1;fill-rule:nonzero;stroke:none"
             d="m 0,0 c -0.673,0.121 -1.353,-0.261 -1.607,-0.898 -0.018,-0.044 -1.864,-4.388 -13.827,-6.849 -5.643,-1.159 -9.195,0.765 -13.689,3.204 -3.13,1.697 -6.676,3.62 -11.375,4.56 -6.875,1.376 -12.384,-1.653 -15.463,-4.015 l 0,2.788 c 0,0.787 -0.642,1.425 -1.433,1.425 -0.791,0 -1.433,-0.638 -1.433,-1.425 l 0,-57.003 c 0,-0.787 0.642,-1.425 1.433,-1.425 0.791,0 1.433,0.638 1.433,1.425 l 0,28.146 c 1.696,1.645 7.435,6.49 14.897,4.995 4.273,-0.854 7.474,-2.59 10.568,-4.268 3.673,-1.992 7.184,-3.896 11.831,-3.896 1.188,0 2.452,0.124 3.811,0.404 13.251,2.726 15.563,6.339 15.891,7.035 0.09,0.189 0.136,0.396 0.136,0.606 l 0,23.81 C 1.173,-0.696 0.676,-0.128 0,0" /></g></g></g></g></svg>