<?xml version="1.0" encoding="UTF-8" standalone="no"?>
<svg
   xmlns:dc="http://purl.org/dc/elements/1.1/"
   xmlns:cc="http://creativecommons.org/ns#"
   xmlns:rdf="http://www.w3.org/1999/02/22-rdf-syntax-ns#"
   xmlns:svg="http://www.w3.org/2000/svg"
   xmlns="http://www.w3.org/2000/svg"
   viewBox="0 0 75 75"
   height="75"
   width="75"
   xml:space="preserve"
   version="1.1"
   id="svg2"><metadata
     id="metadata8"><rdf:RDF><cc:Work
         rdf:about=""><dc:format>image/svg+xml</dc:format><dc:type
           rdf:resource="http://purl.org/dc/dcmitype/StillImage" /></cc:Work></rdf:RDF></metadata><defs
     id="defs6"><clipPath
       id="clipPath16"
       clipPathUnits="userSpaceOnUse"><path
         id="path18"
         d="M 0,60 60,60 60,0 0,0 0,60 Z" /></clipPath></defs><g
     transform="matrix(1.25,0,0,-1.25,0,75)"
     id="g10"><g
       id="g12"><g
         clip-path="url(#clipPath16)"
         id="g14"><g
           transform="translate(9.0715,54.681)"
           id="g20"><path
             id="path22"
             style="fill:#00b9f1;fill-opacity:1;fill-rule:nonzero;stroke:none"
             d="m 0,0 c 1.595,0 2.962,1 3.528,2.416 l -7.056,0 C -2.962,1 -1.594,0 0,0" /></g><g
           transform="translate(19.5413,54.681)"
           id="g24"><path
             id="path26"
             style="fill:#00b9f1;fill-opacity:1;fill-rule:nonzero;stroke:none"
             d="m 0,0 c 1.594,0 2.962,1 3.527,2.416 l -7.056,0 C -2.963,1 -1.595,0 0,0" /></g><g
           transform="translate(30.0102,54.681)"
           id="g28"><path
             id="path30"
             style="fill:#00b9f1;fill-opacity:1;fill-rule:nonzero;stroke:none"
             d="m 0,0 c 1.594,0 2.962,1 3.528,2.416 l -7.057,0 C -2.963,1 -1.595,0 0,0" /></g><g
           transform="translate(40.4791,54.681)"
           id="g32"><path
             id="path34"
             style="fill:#00b9f1;fill-opacity:1;fill-rule:nonzero;stroke:none"
             d="m 0,0 c 1.594,0 2.962,1 3.528,2.416 l -7.056,0 C -2.962,1 -1.594,0 0,0" /></g><g
           transform="translate(50.948,54.681)"
           id="g36"><path
             id="path38"
             style="fill:#00b9f1;fill-opacity:1;fill-rule:nonzero;stroke:none"
             d="m 0,0 c 1.594,0 2.962,1 3.528,2.416 l -7.056,0 C -2.962,1 -1.595,0 0,0" /></g><g
           transform="translate(8.4902,35.4564)"
           id="g40"><path
             id="path42"
             style="fill:#00b9f1;fill-opacity:1;fill-rule:nonzero;stroke:none"
             d="m 0,0 0.187,0.055 c 10.418,3.043 13.465,11.775 14.339,17.273 -1.013,-0.633 -2.201,-1.005 -3.475,-1.005 -2.124,0 -4.014,1.019 -5.235,2.595 -1.221,-1.576 -3.111,-2.595 -5.235,-2.595 -3.183,0 -5.849,2.282 -6.505,5.319 l 54.887,0 c -0.656,-3.037 -3.322,-5.319 -6.505,-5.319 -2.123,0 -4.014,1.019 -5.235,2.595 -1.221,-1.576 -3.111,-2.595 -5.234,-2.595 -1.301,0 -2.513,0.387 -3.54,1.045 C 29.22,11.974 32.096,3.247 42.4,0 l 7.671,0 0,21.643 c 0.784,0.006 1.418,0.653 1.418,1.45 0,0.801 -0.639,1.451 -1.428,1.451 l -57.123,0 c -0.788,0 -1.428,-0.65 -1.428,-1.451 0,-0.801 0.64,-1.451 1.428,-1.451 l 0.049,0 L -7.013,0 0,0 Z" /></g><g
           transform="translate(58.5719,2.9343)"
           id="g44"><path
             id="path46"
             style="fill:#00b9f1;fill-opacity:1;fill-rule:nonzero;stroke:none"
             d="m 0,0 -0.01,0 0,29.621 -6.798,0 C -8.417,27.255 -15.431,15.825 -12.844,0 l -2.896,0 -4.593,0 0,7.205 c 0,0.801 -0.639,1.451 -1.428,1.451 l -1.428,0 -10.747,0 -1.428,0 c -0.788,0 -1.428,-0.65 -1.428,-1.451 l 0,-7.205 -4.61,0 -2.893,0 c 2.61,15.501 -4.014,26.828 -5.866,29.621 l -6.934,0 0,-29.621 -0.028,0 c -0.789,0 -1.428,-0.65 -1.428,-1.451 0,-0.8 0.639,-1.45 1.428,-1.45 l 20.331,0 0,-0.033 2.856,0 0,0.033 10.747,0 0,-0.033 2.856,0 0,0.033 20.333,0 c 0.788,0 1.428,0.65 1.428,1.45 C 1.428,-0.65 0.788,0 0,0" /></g><g
           transform="translate(12.5999,57.0969)"
           id="g48"><path
             id="path50"
             style="fill:#ffffff;fill-opacity:1;fill-rule:nonzero;stroke:none"
             d="m 0,0 c -0.566,-1.416 -1.934,-2.416 -3.528,-2.416 -1.595,0 -2.963,1 -3.529,2.416 L 0,0 Z M 10.469,0 C 9.904,-1.416 8.535,-2.416 6.941,-2.416 c -1.594,0 -2.963,1 -3.529,2.416 l 7.057,0 z m 10.47,0 c -0.567,-1.416 -1.934,-2.416 -3.529,-2.416 -1.594,0 -2.963,1 -3.529,2.416 l 7.058,0 z m 10.469,0 c -0.567,-1.416 -1.934,-2.416 -3.529,-2.416 -1.594,0 -2.962,1 -3.528,2.416 l 7.057,0 z m 10.468,0 c -0.566,-1.416 -1.933,-2.416 -3.528,-2.416 -1.594,0 -2.962,1 -3.528,2.416 l 7.056,0 z M -4.189,-24.542 c 1.852,-2.793 8.476,-14.12 5.866,-29.621 l 2.893,0 c 2.387,15.011 -3.168,26.091 -5.754,30.27 l 0,0.177 c 10.829,4.129 13.761,14.006 14.531,19.815 1.126,-0.884 2.533,-1.416 4.063,-1.416 1.526,0 2.929,0.529 4.054,1.409 0.731,-5.794 3.611,-15.894 14.642,-20.052 -2.535,-4.052 -8.202,-15.133 -5.874,-30.203 l 2.896,0 c -2.587,15.825 4.427,27.255 6.036,29.621 l 6.798,0 0.01,0 0,2.901 -0.01,0 -7.672,0 c -10.304,3.247 -13.18,11.975 -13.95,17.368 1.027,-0.657 2.238,-1.044 3.539,-1.044 2.124,0 4.014,1.018 5.235,2.595 1.221,-1.577 3.111,-2.595 5.234,-2.595 3.184,0 5.85,2.282 6.505,5.319 l -54.886,0 c 0.655,-3.037 3.321,-5.319 6.505,-5.319 2.123,0 4.013,1.018 5.234,2.595 1.221,-1.577 3.111,-2.595 5.235,-2.595 1.275,0 2.462,0.372 3.476,1.005 C 9.542,-9.81 6.495,-18.543 -3.923,-21.586 l -0.187,-0.055 -7.013,0 0,0 0,-2.901 0,0 6.934,0 z" /></g></g></g></g></svg>