<?xml version="1.0" encoding="UTF-8" standalone="no"?>
<svg
   xmlns:dc="http://purl.org/dc/elements/1.1/"
   xmlns:cc="http://creativecommons.org/ns#"
   xmlns:rdf="http://www.w3.org/1999/02/22-rdf-syntax-ns#"
   xmlns:svg="http://www.w3.org/2000/svg"
   xmlns="http://www.w3.org/2000/svg"
   viewBox="0 0 75 75"
   height="75"
   width="75"
   xml:space="preserve"
   version="1.1"
   id="svg2"><metadata
     id="metadata8"><rdf:RDF><cc:Work
         rdf:about=""><dc:format>image/svg+xml</dc:format><dc:type
           rdf:resource="http://purl.org/dc/dcmitype/StillImage" /></cc:Work></rdf:RDF></metadata><defs
     id="defs6"><clipPath
       id="clipPath16"
       clipPathUnits="userSpaceOnUse"><path
         id="path18"
         d="M 0,60 60,60 60,0 0,0 0,60 Z" /></clipPath></defs><g
     transform="matrix(1.25,0,0,-1.25,0,75)"
     id="g10"><g
       id="g12"><g
         clip-path="url(#clipPath16)"
         id="g14"><g
           transform="translate(2.9138,2.8571)"
           id="g20"><path
             id="path22"
             style="fill:#8a8a8a;fill-opacity:1;fill-rule:nonzero;stroke:none"
             d="m 0,0 54.174,0 c -0.74,9.387 -8.808,11.756 -14.234,13.349 -1.368,0.402 -2.55,0.749 -3.392,1.164 -1.963,0.966 -6.527,3.542 -6.527,6.597 0,1.413 0.574,2.604 1.499,3.106 3.239,1.753 4.891,6.93 5.597,9.141 0.365,1.145 0.633,1.984 1.646,2.044 0.568,0.439 1.425,2.877 1.425,5.153 0,0.751 -0.099,0.937 -0.102,0.944 -0.039,0.031 -0.258,0.145 -0.418,0.229 -0.166,0.086 -0.344,0.179 -0.536,0.289 -0.45,0.26 -0.723,0.744 -0.714,1.264 l 0.007,0.264 c 0,6.024 -4.926,10.742 -11.215,10.742 -6.262,0 -11.553,-5.009 -11.553,-10.937 l 0.007,-0.262 c 0.009,-0.521 -0.264,-1.006 -0.714,-1.265 -0.874,-0.504 -0.874,-0.504 -0.874,-1.82 0,-2.312 0.734,-4.53 1.238,-4.946 0.964,-0.054 1.251,-0.808 1.716,-2.029 0.82,-2.151 2.74,-7.189 5.846,-9.033 0.705,-0.422 1.454,-1.365 1.454,-2.755 0,-2.387 -2.112,-4.586 -6.458,-6.725 -0.67,-0.33 -1.659,-0.609 -2.911,-0.962 C 8.057,11.602 0.713,8.78 0,0 m 55.658,-2.857 -57.143,0 c -0.789,0 -1.429,0.64 -1.429,1.428 0,12.903 11.549,16.164 17.099,17.73 1.067,0.301 1.99,0.562 2.426,0.777 3.585,1.764 4.862,3.306 4.862,4.161 0,0.234 -0.08,0.312 -0.089,0.32 -3.929,2.331 -6.098,8.021 -7.024,10.451 -0.054,0.141 -0.102,0.27 -0.145,0.383 -2.428,1.004 -2.996,5.677 -2.996,7.609 0,2.142 0.477,3.052 1.59,3.844 0.274,7.376 6.628,13.297 14.401,13.297 7.695,0 13.765,-5.681 14.061,-13.035 1.024,-0.575 1.774,-1.314 1.774,-3.554 0,-2.202 -0.808,-6.71 -3.115,-7.777 -0.028,-0.088 -0.058,-0.185 -0.091,-0.289 -0.803,-2.514 -2.671,-8.367 -6.832,-10.714 -0.044,-0.083 -0.128,-0.292 -0.128,-0.664 0,-0.674 1.713,-2.45 4.93,-4.034 0.622,-0.306 1.695,-0.621 2.937,-0.986 5.71,-1.677 16.34,-4.798 16.34,-17.519 0,-0.788 -0.64,-1.428 -1.428,-1.428" /></g></g></g></g></svg>