<?xml version="1.0" encoding="UTF-8" standalone="no"?>
<svg
   xmlns:dc="http://purl.org/dc/elements/1.1/"
   xmlns:cc="http://creativecommons.org/ns#"
   xmlns:rdf="http://www.w3.org/1999/02/22-rdf-syntax-ns#"
   xmlns:svg="http://www.w3.org/2000/svg"
   xmlns="http://www.w3.org/2000/svg"
   viewBox="0 0 75 75"
   height="75"
   width="75"
   xml:space="preserve"
   version="1.1"
   id="svg2"><metadata
     id="metadata8"><rdf:RDF><cc:Work
         rdf:about=""><dc:format>image/svg+xml</dc:format><dc:type
           rdf:resource="http://purl.org/dc/dcmitype/StillImage" /></cc:Work></rdf:RDF></metadata><defs
     id="defs6"><clipPath
       id="clipPath16"
       clipPathUnits="userSpaceOnUse"><path
         id="path18"
         d="M 0,60 60,60 60,0 0,0 0,60 Z" /></clipPath></defs><g
     transform="matrix(1.25,0,0,-1.25,0,75)"
     id="g10"><g
       id="g12"><g
         clip-path="url(#clipPath16)"
         id="g14"><g
           transform="translate(57.1429,4.7619)"
           id="g20"><path
             id="path22"
             style="fill:#8a8a8a;fill-opacity:1;fill-rule:nonzero;stroke:none"
             d="m 0,0 c 0,-1.05 -0.855,-1.905 -1.905,-1.905 l -50.476,0 c -1.05,0 -1.905,0.855 -1.905,1.905 l 0,50.476 c 0,1.05 0.855,1.905 1.905,1.905 l 50.476,0 C -0.855,52.381 0,51.526 0,50.476 L 0,0 Z m -1.905,55.238 -50.476,0 c -2.625,0 -4.762,-2.136 -4.762,-4.762 l 0,-50.476 c 0,-2.626 2.137,-4.762 4.762,-4.762 l 50.476,0 c 2.626,0 4.762,2.136 4.762,4.762 l 0,50.476 c 0,2.626 -2.136,4.762 -4.762,4.762" /></g><g
           transform="translate(49.0476,49.1258)"
           id="g24"><path
             id="path26"
             style="fill:#8a8a8a;fill-opacity:1;fill-rule:nonzero;stroke:none"
             d="m 0,0 -38.094,0 c -0.789,0 -1.429,-0.64 -1.429,-1.429 0,-0.788 0.64,-1.428 1.429,-1.428 l 38.094,0 c 0.789,0 1.429,0.64 1.429,1.428 C 1.429,-0.64 0.789,0 0,0" /></g><g
           transform="translate(49.0476,37.9762)"
           id="g28"><path
             id="path30"
             style="fill:#8a8a8a;fill-opacity:1;fill-rule:nonzero;stroke:none"
             d="m 0,0 -38.095,0 c -0.789,0 -1.429,-0.64 -1.429,-1.429 0,-0.788 0.64,-1.428 1.429,-1.428 l 38.095,0 c 0.789,0 1.429,0.64 1.429,1.428 C 1.429,-0.64 0.789,0 0,0" /></g><g
           transform="translate(30.0009,26.8257)"
           id="g32"><path
             id="path34"
             style="fill:#8a8a8a;fill-opacity:1;fill-rule:nonzero;stroke:none"
             d="m 0,0 -19.048,0 c -0.788,0 -1.428,-0.64 -1.428,-1.429 0,-0.788 0.64,-1.428 1.428,-1.428 l 19.048,0 c 0.789,0 1.429,0.64 1.429,1.428 C 1.429,-0.64 0.789,0 0,0" /></g></g></g></g></svg>