<?xml version="1.0" encoding="UTF-8" standalone="no"?>
<svg
   xmlns:dc="http://purl.org/dc/elements/1.1/"
   xmlns:cc="http://creativecommons.org/ns#"
   xmlns:rdf="http://www.w3.org/1999/02/22-rdf-syntax-ns#"
   xmlns:svg="http://www.w3.org/2000/svg"
   xmlns="http://www.w3.org/2000/svg"
   viewBox="0 0 75 75"
   height="75"
   width="75"
   xml:space="preserve"
   version="1.1"
   id="svg2"><metadata
     id="metadata8"><rdf:RDF><cc:Work
         rdf:about=""><dc:format>image/svg+xml</dc:format><dc:type
           rdf:resource="http://purl.org/dc/dcmitype/StillImage" /></cc:Work></rdf:RDF></metadata><defs
     id="defs6"><clipPath
       id="clipPath16"
       clipPathUnits="userSpaceOnUse"><path
         id="path18"
         d="M 0,60 60,60 60,0 0,0 0,60 Z" /></clipPath></defs><g
     transform="matrix(1.25,0,0,-1.25,0,75)"
     id="g10"><g
       id="g12"><g
         clip-path="url(#clipPath16)"
         id="g14"><g
           transform="translate(57.1345,34.9145)"
           id="g20"><path
             id="path22"
             style="fill:#8a8a8a;fill-opacity:1;fill-rule:nonzero;stroke:none"
             d="m 0,0 c -0.681,-0.732 -3.655,-3.243 -13.742,-5.318 -5.643,-1.158 -9.194,0.765 -13.689,3.204 -3.129,1.696 -6.675,3.62 -11.374,4.561 -6.875,1.375 -12.385,-1.654 -15.464,-4.016 l 0,18.515 c 1.704,1.641 7.468,6.484 14.898,5 4.274,-0.855 7.474,-2.591 10.569,-4.269 4.612,-2.502 8.974,-4.863 15.641,-3.491 6.966,1.432 10.926,3.519 13.161,5.297 L 0,0 Z M 1.659,24.751 C 0.97,24.857 0.291,24.453 0.072,23.788 0.058,23.745 -1.867,19.419 -13.742,16.977 c -5.639,-1.159 -9.193,0.765 -13.689,3.202 -3.129,1.698 -6.675,3.622 -11.374,4.561 -6.875,1.377 -12.385,-1.652 -15.464,-4.015 l 0,2.789 c 0,0.787 -0.642,1.425 -1.433,1.425 -0.791,0 -1.433,-0.638 -1.433,-1.425 l 0,-57.003 c 0,-0.787 0.642,-1.425 1.433,-1.425 0.791,0 1.433,0.638 1.433,1.425 l 0,28.141 c 1.704,1.641 7.468,6.482 14.898,5 4.273,-0.854 7.474,-2.59 10.568,-4.269 3.673,-1.992 7.183,-3.896 11.831,-3.896 1.188,0 2.451,0.125 3.811,0.404 13.251,2.727 15.562,6.34 15.89,7.036 0.09,0.189 0.136,0.396 0.136,0.605 l 0,23.811 c 0,0.701 -0.511,1.297 -1.206,1.408" /></g></g></g></g></svg>