<?xml version="1.0" encoding="UTF-8" standalone="no"?>
<svg
   xmlns:dc="http://purl.org/dc/elements/1.1/"
   xmlns:cc="http://creativecommons.org/ns#"
   xmlns:rdf="http://www.w3.org/1999/02/22-rdf-syntax-ns#"
   xmlns:svg="http://www.w3.org/2000/svg"
   xmlns="http://www.w3.org/2000/svg"
   viewBox="0 0 75 75"
   height="75"
   width="75"
   xml:space="preserve"
   version="1.1"
   id="svg2"><metadata
     id="metadata8"><rdf:RDF><cc:Work
         rdf:about=""><dc:format>image/svg+xml</dc:format><dc:type
           rdf:resource="http://purl.org/dc/dcmitype/StillImage" /></cc:Work></rdf:RDF></metadata><defs
     id="defs6"><clipPath
       id="clipPath16"
       clipPathUnits="userSpaceOnUse"><path
         id="path18"
         d="M 0,60 60,60 60,0 0,0 0,60 Z" /></clipPath></defs><g
     transform="matrix(1.25,0,0,-1.25,0,75)"
     id="g10"><g
       id="g12"><g
         clip-path="url(#clipPath16)"
         id="g14"><g
           transform="translate(4.3327,32.5405)"
           id="g20"><path
             id="path22"
             style="fill:#8a8a8a;fill-opacity:1;fill-rule:nonzero;stroke:none"
             d="M 0,0 4.078,0 C 5.93,-2.796 12.553,-14.13 9.943,-29.638 L 0,-29.638 0,0 Z m 47.432,0 3.941,0 0,-29.638 -9.978,0 C 38.809,-13.802 45.824,-2.365 47.432,0 M 8.267,24.556 C 7.702,23.139 6.333,22.137 4.739,22.137 c -1.595,0 -2.963,1.002 -3.528,2.419 l 7.056,0 z m 10.469,0 c -0.565,-1.417 -1.933,-2.419 -3.528,-2.419 -1.595,0 -2.963,1.002 -3.528,2.419 l 7.056,0 z m 10.469,0 c -0.565,-1.417 -1.933,-2.419 -3.528,-2.419 -1.594,0 -2.963,1.002 -3.528,2.419 l 7.056,0 z m 13.882,0 7.057,0 c -0.566,-1.417 -1.934,-2.419 -3.529,-2.419 -1.594,0 -2.963,1.002 -3.528,2.419 m -3.412,0 c -0.566,-1.417 -1.934,-2.419 -3.529,-2.419 -1.594,0 -2.963,1.002 -3.528,2.419 l 7.057,0 z m 11.698,-21.653 -4.817,0 c -10.302,3.25 -13.178,11.98 -13.948,17.376 1.026,-0.658 2.237,-1.044 3.538,-1.044 2.123,0 4.014,1.018 5.235,2.596 1.221,-1.578 3.111,-2.596 5.234,-2.596 1.863,0 3.547,0.783 4.758,2.04 l 0,-18.372 z M 4.345,2.958 4.158,2.903 0,2.903 0,21.254 c 1.209,-1.245 2.886,-2.019 4.739,-2.019 2.123,0 4.013,1.018 5.235,2.596 1.22,-1.578 3.111,-2.596 5.234,-2.596 1.293,0 2.498,0.382 3.521,1.033 C 17.901,14.773 14.899,6.042 4.345,2.958 m 28.134,-25.347 -1.428,0 -10.747,0 -1.429,0 c -0.788,0 -1.428,-0.65 -1.428,-1.452 l 0,-5.797 -4.61,0 c 2.413,15.184 -3.293,26.355 -5.84,30.428 10.901,4.111 13.844,14.033 14.617,19.861 1.126,-0.884 2.533,-1.416 4.063,-1.416 1.526,0 2.93,0.529 4.054,1.41 0.731,-5.797 3.611,-15.903 14.643,-20.064 -2.535,-4.055 -8.202,-15.14 -5.875,-30.219 l -4.592,0 0,5.797 c 0,0.802 -0.64,1.452 -1.428,1.452 m -1.428,-7.249 -10.747,0 0,4.346 10.747,0 0,-4.346 z m 23.188,0 -0.01,0 0,54.196 c 0.784,0.005 1.419,0.652 1.419,1.45 0,0.801 -0.64,1.451 -1.428,1.451 l -57.125,0 c -0.788,0 -1.428,-0.65 -1.428,-1.451 0,-0.801 0.64,-1.451 1.428,-1.451 l 0.049,0 0,-54.195 -0.029,0 c -0.788,0 -1.428,-0.65 -1.428,-1.451 0,-0.801 0.64,-1.452 1.428,-1.452 l 57.124,0 c 0.789,0 1.428,0.651 1.428,1.452 0,0.801 -0.639,1.451 -1.428,1.451" /></g></g></g></g></svg>